<svg width="334" height="115" viewBox="0 0 334 115" fill="none" xmlns="http://www.w3.org/2000/svg">
<path d="M132.295 41.2035L128.063 49.1055C124.145 46.9239 119.504 45.6371 116.109 45.6371C114.301 45.6404 112.758 46.371 112.758 48.0834C112.758 49.263 113.391 49.6886 118.024 50.9218C126.821 53.2675 133.086 55.5463 133.086 63.3477C133.086 71.2261 127.005 75.5658 117.371 75.5558C110.401 75.5558 104.085 73.7613 98.9532 70.3649L103.476 62.8115C107.899 65.5611 112.901 66.9267 117.299 66.93C119.263 66.9334 120.999 66.2229 120.999 64.5273C120.999 62.5384 119.873 62.4228 115.159 61.1644C106.693 58.8689 100.585 56.7644 100.585 49.1893C100.585 40.8416 107.418 37.023 116.168 37.0214C122.123 37.0214 127.9 38.5528 132.295 41.2035Z" fill="#FEFEFE"/>
<path d="M162.505 37.762V47.6478H153.409V60.3635C153.409 63.5337 155.605 65.0233 158.295 65.0233C159.908 65.0233 161.755 64.4402 163.234 63.5856L164.86 72.4342C161.118 74.4365 157.053 75.4921 153.253 75.5558C146.231 75.6178 140.358 71.4842 140.358 62.6389V47.6478H135.524V37.762H140.358V28.1845H153.412V37.762H162.505Z" fill="#FEFEFE"/>
<path d="M182.235 59.3833C182.235 63.0645 184.343 65.0232 187.488 65.0232C190.529 65.0232 193.436 63.9743 195.728 62.0944V37.762H208.784V74.8135H195.728V70.757C191.752 73.8517 186.792 75.5541 182.198 75.5541C175.005 75.5541 169.181 71.6635 169.181 63.3175V37.762H182.235V59.3833Z" fill="#FEFEFE"/>
<path d="M255.792 56.2886C255.792 66.9602 249.802 75.5558 239.663 75.5558C235.126 75.5558 230.98 73.5635 227.946 70.2744V89.2652H214.89V37.762H227.946V42.3027C231.009 39.0186 235.124 37.0214 239.663 37.0214C249.802 37.0214 255.792 45.617 255.792 56.2886ZM227.946 52.0611V60.5076C229.348 62.902 231.922 64.5088 234.841 64.5088C239.278 64.5088 242.925 60.8344 242.925 56.2886C242.925 51.7428 239.278 48.0683 234.841 48.0683C231.924 48.0683 229.35 49.6701 227.946 52.0611Z" fill="#FEFEFE"/>
<path d="M302.297 56.2886C302.297 66.9602 292.82 75.5558 281.193 75.5558C269.565 75.5558 260.091 66.9602 260.091 56.2886C260.091 45.617 269.565 37.0214 281.193 37.0214C292.82 37.0214 302.297 45.617 302.297 56.2886ZM272.883 56.2886C272.883 60.8377 276.591 64.5088 281.101 64.5088C285.615 64.5088 289.318 60.8377 289.318 56.2886C289.318 51.7394 285.615 48.0683 281.101 48.0683C276.591 48.0683 272.883 51.7394 272.883 56.2886Z" fill="#FEFEFE"/>
<path d="M333.057 47.5522C328.32 47.5522 323.826 49.9131 320.294 54.1455V74.8135H307.236V37.762H320.294V44.5882C323.962 39.7056 328.672 37.0247 333.057 37.0247V47.5522Z" fill="#FEFEFE"/>
<path d="M87.9146 79.0661L49.7941 101.076L12.0573 79.2872V35.7111L49.7941 13.9238L87.9146 35.9306L99.9719 28.9703L49.7941 0L0.191011 28.6402L0 28.7492V86.2508L49.7941 115L99.9753 86.0112L87.9146 79.0661Z" fill="#FEFEFE"/>
<path d="M49.7959 25.5723L22.1459 41.537L33.2347 47.9393L49.7959 38.3769L66.357 47.9393V67.0624L49.7959 76.6231L33.2347 67.0624L22.1459 73.4647L49.7959 89.4277L77.4459 73.4647V41.537L49.7959 25.5723Z" fill="#FEFEFE"/>
</svg>
